<?xml version="1.0" encoding="iso-8859-1"?>
<svg height="800px" width="800px" version="1.1" id="Capa_1" xmlns="http://www.w3.org/2000/svg" xmlns:xlink="http://www.w3.org/1999/xlink" 
	 viewBox="0 0 234 234" xml:space="preserve">
<g>
	<path style="fill:#000002;" d="M195,0H39C17.458,0,0,17.458,0,39v117c0,21.542,17.458,39,39,39h39v31.5
		c0,3.038,1.834,5.779,4.648,6.938c0.938,0.387,1.929,0.578,2.914,0.578c1.989,0,3.958-0.789,5.414-2.328L130.414,195H195
		c21.542,0,39-17.458,39-39V39C234,17.458,216.542,0,195,0z M219,156c0,13.233-10.767,24-24,24h-69.586
		c-2.122,0-4.156,0.844-5.657,2.343L93,208.586V187.5c0-4.142-3.358-7.5-7.5-7.5H39c-13.233,0-24-10.767-24-24V39
		c0-13.233,10.767-24,24-24h156c13.233,0,24,10.767,24,24V156z"/>
	<path style="fill:#000002;" d="M58.5,78h117c4.142,0,7.5-3.358,7.5-7.5s-3.358-7.5-7.5-7.5h-117c-4.142,0-7.5,3.358-7.5,7.5
		S54.358,78,58.5,78z"/>
	<path style="fill:#000002;" d="M175.5,102h-117c-4.142,0-7.5,3.358-7.5,7.5s3.358,7.5,7.5,7.5h117c4.142,0,7.5-3.358,7.5-7.5
		S179.642,102,175.5,102z"/>
	<path style="fill:#000002;" d="M136.5,141h-78c-4.142,0-7.5,3.358-7.5,7.5s3.358,7.5,7.5,7.5h78c4.142,0,7.5-3.358,7.5-7.5
		S140.642,141,136.5,141z"/>
</g>
</svg>