<?xml version="1.0" encoding="iso-8859-1"?>
<svg height="800px" width="800px" version="1.1" id="Capa_1" xmlns="http://www.w3.org/2000/svg" xmlns:xlink="http://www.w3.org/1999/xlink" 
	 viewBox="0 0 234 234" xml:space="preserve">
<g>
	<path style="fill:#000002;" d="M128.309,117L228.155,17.155c3.125-3.125,3.125-8.189,0-11.314c-3.125-3.125-8.189-3.125-11.314,0
		L117,105.686L17.155,5.841c-3.125-3.125-8.189-3.125-11.314,0c-3.125,3.125-3.125,8.189,0,11.314L105.686,117
		L5.841,216.845c-3.125,3.125-3.125,8.189,0,11.314c1.562,1.562,3.609,2.344,5.657,2.344s4.095-0.781,5.657-2.344L117,128.314
		l99.845,99.845c1.562,1.562,3.609,2.344,5.657,2.344s4.095-0.781,5.657-2.344c3.125-3.125,3.125-8.189,0-11.314L128.309,117z"/>
</g>
</svg>