<?xml version="1.0" encoding="iso-8859-1"?>
<svg height="800px" width="800px" version="1.1" id="Capa_1" xmlns="http://www.w3.org/2000/svg" xmlns:xlink="http://www.w3.org/1999/xlink" 
	 viewBox="0 0 234 234" xml:space="preserve">
<g>
	<path style="fill:#000002;" d="M117,0C52.467,0,0,52.467,0,117s52.467,117,117,117s117-52.467,117-117S181.533,0,117,0z
		 M117,219c-56.243,0-102-45.757-102-102S60.757,15,117,15s102,45.757,102,102S173.243,219,117,219z"/>
	<path style="fill:#000002;" d="M117,39c-4.142,0-7.5,3.358-7.5,7.5v63h-63c-4.142,0-7.5,3.358-7.5,7.5s3.358,7.5,7.5,7.5h63v63
		c0,4.142,3.358,7.5,7.5,7.5s7.5-3.358,7.5-7.5v-63h63c4.142,0,7.5-3.358,7.5-7.5s-3.358-7.5-7.5-7.5h-63v-63
		C124.5,42.358,121.142,39,117,39z"/>
	<path style="fill:#000002;" d="M78,78c2.929,2.929,7.678,2.929,10.607,0c2.929-2.929,2.929-7.678,0-10.607l-15-15
		c-2.929-2.929-7.678-2.929-10.607,0c-2.929,2.929-2.929,7.678,0,10.607L78,78z"/>
	<path style="fill:#000002;" d="M171.607,171.607c2.929,2.929,7.678,2.929,10.607,0l15-15c2.929-2.929,2.929-7.678,0-10.607
		c-2.929-2.929-7.678-2.929-10.607,0l-15,15C168.678,163.929,168.678,168.678,171.607,171.607z"/>
	<path style="fill:#000002;" d="M171.607,62.393c2.929-2.929,2.929-7.678,0-10.607c-2.929-2.929-7.678-2.929-10.607,0l-15,15
		c-2.929,2.929-2.929,7.678,0,10.607c2.929,2.929,7.678,2.929,10.607,0L171.607,62.393z"/>
	<path style="fill:#000002;" d="M78,156c-2.929-2.929-7.678-2.929-10.607,0l-15,15c-2.929,2.929-2.929,7.678,0,10.607
		c2.929,2.929,7.678,2.929,10.607,0l15-15C80.929,163.678,80.929,158.929,78,156z"/>
</g>
</svg>