<?xml version="1.0" encoding="iso-8859-1"?>
<svg height="800px" width="800px" version="1.1" id="Capa_1" xmlns="http://www.w3.org/2000/svg" xmlns:xlink="http://www.w3.org/1999/xlink" 
	 viewBox="0 0 234 234" xml:space="preserve">
<g>
	<path style="fill:#000002;" d="M195,0H58.5c-4.142,0-7.5,3.358-7.5,7.5v39H39c-21.542,0-39,17.458-39,39v109.5
		c0,21.542,17.458,39,39,39h156c21.542,0,39-17.458,39-39V39C234,17.458,216.542,0,195,0z M66,15h129c13.233,0,24,10.767,24,24
		v109.5c0,13.233-10.767,24-24,24H66V15z M219,195c0,13.233-10.767,24-24,24H39c-13.233,0-24-10.767-24-24V85.5
		c0-13.233,10.767-24,24-24h12v86c0,21.542,17.458,39,39,39h129V195z"/>
	<path style="fill:#000002;" d="M97.5,54h78c4.142,0,7.5-3.358,7.5-7.5s-3.358-7.5-7.5-7.5h-78c-4.142,0-7.5,3.358-7.5,7.5
		S93.358,54,97.5,54z"/>
	<path style="fill:#000002;" d="M175.5,78h-78c-4.142,0-7.5,3.358-7.5,7.5s3.358,7.5,7.5,7.5h78c4.142,0,7.5-3.358,7.5-7.5
		S179.642,78,175.5,78z"/>
	<path style="fill:#000002;" d="M175.5,117h-78c-4.142,0-7.5,3.358-7.5,7.5s3.358,7.5,7.5,7.5h78c4.142,0,7.5-3.358,7.5-7.5
		S179.642,117,175.5,117z"/>
</g>
</svg>