<?xml version="1.0" encoding="iso-8859-1"?>
<svg height="800px" width="800px" version="1.1" id="Capa_1" xmlns="http://www.w3.org/2000/svg" xmlns:xlink="http://www.w3.org/1999/xlink" 
	 viewBox="0 0 234 234" xml:space="preserve">
<g>
	<path style="fill:#000002;" d="M7.5,42.571h219c4.142,0,7.5-3.358,7.5-7.5s-3.358-7.5-7.5-7.5h-219
		c-4.142,0-7.5,3.358-7.5,7.5S3.358,42.571,7.5,42.571z"/>
	<path style="fill:#000002;" d="M226.5,109.571h-219c-4.142,0-7.5,3.358-7.5,7.5s3.358,7.5,7.5,7.5h219
		c4.142,0,7.5-3.358,7.5-7.5S230.642,109.571,226.5,109.571z"/>
	<path style="fill:#000002;" d="M226.5,191.571h-219c-4.142,0-7.5,3.358-7.5,7.5s3.358,7.5,7.5,7.5h219
		c4.142,0,7.5-3.358,7.5-7.5S230.642,191.571,226.5,191.571z"/>
</g>
</svg>