<?xml version="1.0" encoding="iso-8859-1"?>
<svg height="800px" width="800px" version="1.1" id="Capa_1" xmlns="http://www.w3.org/2000/svg" xmlns:xlink="http://www.w3.org/1999/xlink" 
	 viewBox="0 0 234 234" xml:space="preserve">
<g>
	<path style="fill:#000002;" d="M117,0C52.467,0,0,52.467,0,117s52.467,117,117,117s117-52.467,117-117S181.533,0,117,0z
		 M117,219c-56.243,0-102-45.757-102-102S60.757,15,117,15s102,45.757,102,102S173.243,219,117,219z"/>
	<path style="fill:#000002;" d="M78,93c8.284,0,15-6.716,15-15s-6.716-15-15-15s-15,6.716-15,15S69.716,93,78,93z"/>
	<path style="fill:#000002;" d="M156,93c8.284,0,15-6.716,15-15s-6.716-15-15-15s-15,6.716-15,15S147.716,93,156,93z"/>
	<path style="fill:#000002;" d="M117,195c27.062,0,51.123-16.329,61.329-41.559c1.562-3.859-0.297-8.219-4.156-9.781
		c-3.859-1.562-8.219,0.297-9.781,4.156C156.623,164.329,137.686,180,117,180s-39.623-15.671-47.392-32.184
		c-1.562-3.859-5.922-5.719-9.781-4.156c-3.859,1.562-5.719,5.922-4.156,9.781C65.877,178.671,89.938,195,117,195z"/>
</g>
</svg>