<?xml version="1.0" encoding="iso-8859-1"?>
<svg height="800px" width="800px" version="1.1" id="Capa_1" xmlns="http://www.w3.org/2000/svg" xmlns:xlink="http://www.w3.org/1999/xlink" 
	 viewBox="0 0 234 234" xml:space="preserve">
<g>
	<path style="fill:#000002;" d="M195,15H39c-13.233,0-24,10.767-24,24v156c0,13.233,10.767,24,24,24h156
		c13.233,0,24-10.767,24-24V39C219,25.767,208.233,15,195,15z M204,195c0,4.963-4.037,9-9,9H39c-4.963,0-9-4.037-9-9V39
		c0-4.963,4.037-9,9-9h156c4.963,0,9,4.037,9,9V195z"/>
	<path style="fill:#000002;" d="M58.5,180h39c4.142,0,7.5-3.358,7.5-7.5v-78c0-4.142-3.358-7.5-7.5-7.5h-39
		c-4.142,0-7.5,3.358-7.5,7.5v78C51,176.642,54.358,180,58.5,180z M66,102h24v63H66V102z"/>
	<path style="fill:#000002;" d="M136.5,180h39c4.142,0,7.5-3.358,7.5-7.5v-117c0-4.142-3.358-7.5-7.5-7.5h-39
		c-4.142,0-7.5,3.358-7.5,7.5v117C129,176.642,132.358,180,136.5,180z M144,63h24v102h-24V63z"/>
	<path style="fill:#000002;" d="M97.5,180h39c4.142,0,7.5-3.358,7.5-7.5v-39c0-4.142-3.358-7.5-7.5-7.5h-39
		c-4.142,0-7.5,3.358-7.5,7.5v39C90,176.642,93.358,180,97.5,180z M105,141h24v24h-24V141z"/>
</g>
</svg>